<mxfile host="65bd71144e">
    <diagram id="g9IzFdIgf6HGvcq9mrvx" name="Page-1">
        <mxGraphModel dx="846" dy="998" grid="1" gridSize="10" guides="1" tooltips="1" connect="1" arrows="1" fold="1" page="1" pageScale="1" pageWidth="850" pageHeight="1100" math="0" shadow="0">
            <root>
                <mxCell id="0"/>
                <mxCell id="1" parent="0"/>
                <mxCell id="24" value="Agentic Workflow" style="swimlane;whiteSpace=wrap;html=1;" parent="1" vertex="1">
                    <mxGeometry x="120" y="30" width="610" height="720" as="geometry"/>
                </mxCell>
                <mxCell id="25" value="Relevant Data API" style="ellipse;whiteSpace=wrap;html=1;" parent="24" vertex="1">
                    <mxGeometry x="460" y="240" width="120" height="80" as="geometry"/>
                </mxCell>
                <mxCell id="26" value="" style="edgeStyle=none;html=1;entryX=0.5;entryY=0;entryDx=0;entryDy=0;" parent="24" source="27" target="28" edge="1">
                    <mxGeometry relative="1" as="geometry">
                        <mxPoint x="306" y="130" as="sourcePoint"/>
                    </mxGeometry>
                </mxCell>
                <mxCell id="27" value="" style="shape=umlActor;verticalLabelPosition=bottom;verticalAlign=top;html=1;outlineConnect=0;" parent="24" vertex="1">
                    <mxGeometry x="228" y="40" width="30" height="60" as="geometry"/>
                </mxCell>
                <mxCell id="28" value="Your&lt;br&gt;Agentic&lt;br&gt;App" style="rounded=1;whiteSpace=wrap;html=1;" parent="24" vertex="1">
                    <mxGeometry x="258" y="188" width="95" height="312" as="geometry"/>
                </mxCell>
                <mxCell id="29" value="Your RAG App" style="ellipse;whiteSpace=wrap;html=1;" parent="24" vertex="1">
                    <mxGeometry x="50" y="240" width="120" height="80" as="geometry"/>
                </mxCell>
                <mxCell id="30" value="Another RAG App" style="ellipse;whiteSpace=wrap;html=1;" parent="24" vertex="1">
                    <mxGeometry x="50" y="360" width="120" height="80" as="geometry"/>
                </mxCell>
                <mxCell id="35" value="Answer Consumer" style="ellipse;whiteSpace=wrap;html=1;" vertex="1" parent="24">
                    <mxGeometry x="150" y="590" width="120" height="80" as="geometry"/>
                </mxCell>
                <mxCell id="44" value="Management API" style="ellipse;whiteSpace=wrap;html=1;" vertex="1" parent="24">
                    <mxGeometry x="330" y="590" width="120" height="80" as="geometry"/>
                </mxCell>
                <mxCell id="46" value="Optional" style="endArrow=classic;startArrow=classic;html=1;entryX=1;entryY=0.5;entryDx=0;entryDy=0;exitX=0;exitY=0.5;exitDx=0;exitDy=0;" edge="1" parent="24" source="28" target="29">
                    <mxGeometry width="50" height="50" relative="1" as="geometry">
                        <mxPoint x="190" y="340" as="sourcePoint"/>
                        <mxPoint x="240" y="290" as="targetPoint"/>
                    </mxGeometry>
                </mxCell>
                <mxCell id="47" value="Optional" style="endArrow=classic;startArrow=classic;html=1;entryX=1;entryY=0.5;entryDx=0;entryDy=0;exitX=0;exitY=0.5;exitDx=0;exitDy=0;" edge="1" parent="24" source="25" target="28">
                    <mxGeometry width="50" height="50" relative="1" as="geometry">
                        <mxPoint x="268" y="276" as="sourcePoint"/>
                        <mxPoint x="220" y="250" as="targetPoint"/>
                    </mxGeometry>
                </mxCell>
                <mxCell id="48" value="Optional" style="endArrow=classic;startArrow=classic;html=1;entryX=1;entryY=0.5;entryDx=0;entryDy=0;exitX=0;exitY=0.5;exitDx=0;exitDy=0;" edge="1" parent="24" source="28" target="30">
                    <mxGeometry width="50" height="50" relative="1" as="geometry">
                        <mxPoint x="278" y="286" as="sourcePoint"/>
                        <mxPoint x="230" y="260" as="targetPoint"/>
                    </mxGeometry>
                </mxCell>
                <mxCell id="49" value="Depending&lt;br&gt;on outcome" style="endArrow=none;dashed=1;html=1;dashPattern=1 3;strokeWidth=2;exitX=0.5;exitY=0;exitDx=0;exitDy=0;entryX=0.5;entryY=1;entryDx=0;entryDy=0;" edge="1" parent="24" source="35" target="28">
                    <mxGeometry width="50" height="50" relative="1" as="geometry">
                        <mxPoint x="240" y="580" as="sourcePoint"/>
                        <mxPoint x="290" y="530" as="targetPoint"/>
                        <Array as="points">
                            <mxPoint x="260" y="540"/>
                        </Array>
                    </mxGeometry>
                </mxCell>
                <mxCell id="50" value="&lt;span style=&quot;color: rgb(240, 240, 240); font-family: Helvetica; font-size: 11px; font-style: normal; font-variant-ligatures: normal; font-variant-caps: normal; font-weight: 400; letter-spacing: normal; orphans: 2; text-align: center; text-indent: 0px; text-transform: none; widows: 2; word-spacing: 0px; -webkit-text-stroke-width: 0px; background-color: rgb(24, 20, 29); text-decoration-thickness: initial; text-decoration-style: initial; text-decoration-color: initial; float: none; display: inline !important;&quot;&gt;Depending&lt;/span&gt;&lt;br style=&quot;border-color: rgb(0, 0, 0); color: rgb(240, 240, 240); font-family: Helvetica; font-size: 11px; font-style: normal; font-variant-ligatures: normal; font-variant-caps: normal; font-weight: 400; letter-spacing: normal; orphans: 2; text-align: center; text-indent: 0px; text-transform: none; widows: 2; word-spacing: 0px; -webkit-text-stroke-width: 0px; text-decoration-thickness: initial; text-decoration-style: initial; text-decoration-color: initial;&quot;&gt;&lt;span style=&quot;color: rgb(240, 240, 240); font-family: Helvetica; font-size: 11px; font-style: normal; font-variant-ligatures: normal; font-variant-caps: normal; font-weight: 400; letter-spacing: normal; orphans: 2; text-align: center; text-indent: 0px; text-transform: none; widows: 2; word-spacing: 0px; -webkit-text-stroke-width: 0px; background-color: rgb(24, 20, 29); text-decoration-thickness: initial; text-decoration-style: initial; text-decoration-color: initial; float: none; display: inline !important;&quot;&gt;on outcome&lt;/span&gt;" style="endArrow=none;dashed=1;html=1;dashPattern=1 3;strokeWidth=2;exitX=0.5;exitY=0;exitDx=0;exitDy=0;entryX=0.5;entryY=1;entryDx=0;entryDy=0;" edge="1" parent="24" source="44" target="28">
                    <mxGeometry width="50" height="50" relative="1" as="geometry">
                        <mxPoint x="230" y="580" as="sourcePoint"/>
                        <mxPoint x="315.5" y="510" as="targetPoint"/>
                    </mxGeometry>
                </mxCell>
                <mxCell id="51" value="Other Tools" style="ellipse;whiteSpace=wrap;html=1;" vertex="1" parent="24">
                    <mxGeometry x="460" y="360" width="120" height="80" as="geometry"/>
                </mxCell>
                <mxCell id="53" value="Optional" style="endArrow=classic;startArrow=classic;html=1;entryX=1;entryY=0.5;entryDx=0;entryDy=0;exitX=0;exitY=0.5;exitDx=0;exitDy=0;" edge="1" parent="24" source="51" target="28">
                    <mxGeometry width="50" height="50" relative="1" as="geometry">
                        <mxPoint x="470" y="290" as="sourcePoint"/>
                        <mxPoint x="363" y="354.0000000000002" as="targetPoint"/>
                    </mxGeometry>
                </mxCell>
                <mxCell id="56" value="" style="edgeStyle=none;html=1;entryX=0.5;entryY=0;entryDx=0;entryDy=0;" edge="1" parent="24" source="55" target="28">
                    <mxGeometry relative="1" as="geometry"/>
                </mxCell>
                <mxCell id="55" value="Some&lt;br&gt;Triggered&lt;br&gt;Process" style="shape=process;whiteSpace=wrap;html=1;backgroundOutline=1;" vertex="1" parent="24">
                    <mxGeometry x="305" y="40" width="120" height="60" as="geometry"/>
                </mxCell>
            </root>
        </mxGraphModel>
    </diagram>
</mxfile>